<svg viewBox="0 0 512 512" xmlns="http://www.w3.org/2000/svg" xmlns:xlink="http://www.w3.org/1999/xlink" width="300" height="300" version="1.1" xmlns:svgjs="http://svgjs.dev/svgjs"><g width="100%" height="100%" transform="matrix(6.123233995736766e-17,1,-1,6.123233995736766e-17,512,0)"><linearGradient id="linear-gradient" gradientUnits="userSpaceOnUse" x1="45.83" x2="461" y1="45.83" y2="461"><stop stop-opacity="1" stop-color="#78ec0e" offset="0"/><stop stop-opacity="1" stop-color="#20d43a" offset="0.5"/><stop stop-opacity="1" stop-color="#099924" offset="1"/></linearGradient><g id="Layer_2" data-name="Layer 2"><g id="Layer_1_copy_3" data-name="Layer 1 copy 3"><g id="_21" data-name="21"><rect height="512" rx="132.35" width="512" fill="#000000" fill-opacity="1" data-original-color="#000000ff" stroke="none" stroke-opacity="1"/><rect id="background" fill="url(#linear-gradient)" height="492" rx="122.35" width="492" x="10" y="10" data-original-color="linear-gradient" stroke="none" stroke-opacity="1"/><path d="m390.4 415.91a24.52 24.52 0 0 1 -17.4-7.23l-170.79-170.74-50 50a24.7 24.7 0 0 1 -25.87 5.74 24.76 24.76 0 0 1 -16.15-21l-13.19-149.76a24.6 24.6 0 0 1 7.13-19.6 24.85 24.85 0 0 1 17.45-7.23c.71 0 1.43 0 2.15.1l149.75 13.12a24.68 24.68 0 0 1 15.3 42l-51.68 51.69 170.74 170.79a24.68 24.68 0 0 1 -17.44 42.12zm-235.71-200.24 61.82-61.82-67.76-5.94z" fill="#000000" fill-opacity="1" data-original-color="#000000ff" stroke="none" stroke-opacity="1"/><path d="m400.77 380.86-177.77-177.86 58.79-58.78a14.67 14.67 0 0 0 -9.1-25l-149.8-13.07a14.67 14.67 0 0 0 -15.9 15.9l13.12 149.75a14.68 14.68 0 0 0 25 9.1l57.11-57.11 177.78 177.82a14.67 14.67 0 0 0 20.75-20.75zm-263-243.95 101 8.85-92.17 92.14z" fill="#ffffff" fill-opacity="1" data-original-color="#ffffffff" stroke="none" stroke-opacity="1"/></g></g></g></g></svg>